<svg xmlns="http://www.w3.org/2000/svg" width="108.332" height="99.954" viewBox="0 0 108.332 99.954">
    <defs>
        <linearGradient id="1k96vbr0ra" x1="-.026" y1="-.018" x2="1" y2="1.02" gradientUnits="objectBoundingBox">
            <stop offset="0" stop-color="#2051d5"/>
            <stop offset="1" stop-color="#143283"/>
        </linearGradient>
    </defs>
    <path data-name="Path 11277" d="M107.364 57.46q0 .849-.043 1.688a2.7 2.7 0 0 1-2.695 2.545H91.548a15.8 15.8 0 0 0 0-8.467h4.946a1.636 1.636 0 0 0 1.573-2.055A24.2 24.2 0 1 0 74.7 81.652h12.961a2.722 2.722 0 0 1 2.723 2.72V87.4a2.723 2.723 0 0 1-2.721 2.72H74.482a32.464 32.464 0 0 1-32.441-32.81.325.325 0 0 1 0-.044 32.663 32.663 0 0 1 65.053-4.036 33.1 33.1 0 0 1 .274 4.232z" transform="translate(-20.536 -24.769)" style="fill:url(#1k96vbr0ra)"/>
    <path data-name="Path 11278" d="M90.364 57.407A15.714 15.714 0 0 1 75.5 73.111a15.693 15.693 0 0 1-11.757-6.279 1.351 1.351 0 0 1 1.077-2.166h10.304l2.418-2.418v-9.679l-2.419-2.417H64.781a1.333 1.333 0 0 1-1.062-2.132A15.7 15.7 0 0 1 75.5 41.709a15.713 15.713 0 0 1 14.865 15.7z" transform="translate(-20.472 -24.717)" style="fill:url(#1k96vbr0ra)"/>
    <path data-name="Path 11279" d="M90.369 57.408A15.714 15.714 0 0 1 75.5 73.111c-.284.015-.574.023-.861.023a15.707 15.707 0 0 1-12.582-6.288 1.357 1.357 0 0 1 1.073-2.179h8.584a4.131 4.131 0 0 0 4.136-4.132v-6.256a4.132 4.132 0 0 0-4.132-4.13h-8.632a1.329 1.329 0 0 1-1.073-2.113 15.707 15.707 0 0 1 12.626-6.359c.288 0 .576.007.859.023a15.713 15.713 0 0 1 14.871 15.7z" transform="translate(-20.477 -24.716)" style="fill:url(#1k96vbr0ra)"/>
    <path data-name="Path 11280" d="M99.753 81.329h4.363a3.085 3.085 0 0 1 3.085 3.085v4.392a1.143 1.143 0 0 1-1.144 1.144h-8.245a1.143 1.143 0 0 1-1.143-1.143v-4.392a3.085 3.085 0 0 1 3.084-3.086z" transform="translate(-20.372 -24.598)" style="fill:url(#1k96vbr0ra)"/>
    <path data-name="Rectangle 956" transform="translate(78.073 47.491)" style="fill:url(#1k96vbr0ra)" d="M0 0h6.977v6.977H0z"/>
    <path data-name="Path 11281" d="M100.407 72.136h3.052a2.186 2.186 0 0 1 2.186 2.185h-7.423a2.185 2.185 0 0 1 2.185-2.185z" transform="translate(-20.367 -24.625)" style="fill:url(#1k96vbr0ra)"/>
    <path data-name="Path 11282" d="M101.873 71.212h.1a1.828 1.828 0 0 1 1.827 1.828v.36h-3.758v-.36a1.828 1.828 0 0 1 1.829-1.828z" transform="translate(-20.361 -24.628)" style="fill:url(#1k96vbr0ra)"/>
    <path data-name="Path 11283" d="M20.6 124.123v-19.3h9.027c4.2 0 6.488 2.837 6.488 6.219 0 3.356-2.316 6.193-6.488 6.193h-4.915v6.887zm11.316-13.081a2.608 2.608 0 0 0-2.865-2.608h-4.339v5.186h4.342a2.608 2.608 0 0 0 2.866-2.578z" transform="translate(-20.6 -24.528)" style="fill:url(#1k96vbr0ra)"/>
    <path data-name="Path 11284" d="M38.551 124.108v-13.979h3.676v1.876a6.129 6.129 0 0 1 4.456-2.229v3.593a4.741 4.741 0 0 0-4.456 1.5v9.232z" transform="translate(-20.546 -24.512)" style="fill:url(#1k96vbr0ra)"/>
    <path data-name="Path 11285" d="M48.045 117.105a7.081 7.081 0 0 1 7.383-7.322 7.336 7.336 0 0 1 0 14.672 7.1 7.1 0 0 1-7.383-7.35zm10.968 0c0-2.169-1.273-4.052-3.593-4.052-2.287 0-3.56 1.881-3.56 4.052 0 2.2 1.273 4.08 3.56 4.08 2.318 0 3.593-1.88 3.593-4.08z" transform="translate(-20.518 -24.512)" style="fill:url(#1k96vbr0ra)"/>
    <path data-name="Path 11286" d="m69.15 124.108-5.617-13.979h3.936l3.647 9.731 3.676-9.731h3.935l-5.617 13.979z" transform="translate(-20.471 -24.511)" style="fill:url(#1k96vbr0ra)"/>
    <path data-name="Path 11287" d="M79.984 106.44a2.185 2.185 0 1 1 2.185 2.185 2.185 2.185 0 0 1-2.185-2.185zm.349 17.683v-13.976h3.675v13.979z" transform="translate(-20.422 -24.529)" style="fill:url(#1k96vbr0ra)"/>
    <path data-name="Path 11288" d="M97.241 124.119v-1.8a5.383 5.383 0 0 1-4.313 2.141c-3.5 0-6.194-2.663-6.194-7.351 0-4.541 2.634-7.322 6.194-7.322a5.3 5.3 0 0 1 4.313 2.142v-7.121h3.7v19.307zm0-4.513v-4.951a3.989 3.989 0 0 0-3.154-1.6c-2.112 0-3.56 1.647-3.56 4.052 0 2.431 1.447 4.08 3.56 4.08a3.952 3.952 0 0 0 3.154-1.586z" transform="translate(-20.402 -24.524)" style="fill:url(#1k96vbr0ra)"/>
    <path data-name="Path 11289" d="M103.647 117.105a7.131 7.131 0 0 1 7.236-7.322c4.2 0 7 3.126 7 7.669v.868h-10.39a3.746 3.746 0 0 0 4.023 3.125 5.847 5.847 0 0 0 3.7-1.36l1.647 2.431a8.719 8.719 0 0 1-5.758 1.939 7.077 7.077 0 0 1-7.463-7.35zm7.236-4.313a3.227 3.227 0 0 0-3.41 2.981h6.887a3.2 3.2 0 0 0-3.473-2.981z" transform="translate(-20.349 -24.513)" style="fill:url(#1k96vbr0ra)"/>
    <path data-name="Path 11290" d="M120.5 124.108v-13.979h3.676v1.876a6.131 6.131 0 0 1 4.456-2.229v3.593a4.741 4.741 0 0 0-4.456 1.5v9.232z" transform="translate(-20.3 -24.512)" style="fill:url(#1k96vbr0ra)"/>
    <path data-name="Path 11291" d="M66.4 55.64a1.725 1.725 0 1 0 1.725 1.727A1.725 1.725 0 0 0 66.4 55.64zm0 2.587a.862.862 0 1 1 .861-.86.862.862 0 0 1-.861.86z" transform="translate(-20.468 -24.675)" style="fill:url(#1k96vbr0ra)"/>
    <path data-name="Path 11292" d="m70.407 58.2-.192-.11a3.943 3.943 0 0 0 0-1.418l.192-.109a1.3 1.3 0 0 0-1.293-2.246l-.192.11a3.866 3.866 0 0 0-1.228-.708V53.5a1.3 1.3 0 0 0-2.587 0v.225a3.86 3.86 0 0 0-1.228.709l-.19-.11a1.3 1.3 0 0 0-1.3 2.243l.192.109a3.943 3.943 0 0 0 0 1.418l-.192.11a1.3 1.3 0 1 0 1.3 2.242l.193-.109a3.88 3.88 0 0 0 1.229.708v.221a1.3 1.3 0 1 0 2.587 0v-.221a3.893 3.893 0 0 0 1.228-.71l.194.111a1.3 1.3 0 0 0 1.3-2.243zm-1.1-1.628a3.047 3.047 0 0 1 0 1.617.429.429 0 0 0 .2.488l.469.271a.432.432 0 1 1-.432.749l-.469-.272a.432.432 0 0 0-.523.072 3.009 3.009 0 0 1-1.4.808.431.431 0 0 0-.323.418v.539a.432.432 0 1 1-.862 0v-.542a.431.431 0 0 0-.323-.418 3.009 3.009 0 0 1-1.4-.81.432.432 0 0 0-.523-.071l-.469.271a.431.431 0 0 1-.436-.744l.469-.271a.431.431 0 0 0 .2-.489 3.044 3.044 0 0 1 0-1.616.43.43 0 0 0-.2-.487l-.468-.271a.432.432 0 0 1 .431-.749l.469.272a.432.432 0 0 0 .523-.07 3 3 0 0 1 1.4-.808.431.431 0 0 0 .324-.42V53.5a.431.431 0 0 1 .86 0v.539a.431.431 0 0 0 .324.418 3.009 3.009 0 0 1 1.4.81.431.431 0 0 0 .524.071l.469-.271a.431.431 0 0 1 .436.744l-.468.271a.429.429 0 0 0-.2.486z" transform="translate(-20.469 -24.694)" style="fill:url(#1k96vbr0ra)"/>
</svg>
