<svg xmlns="http://www.w3.org/2000/svg" width="191.19" height="176.354" viewBox="0 0 191.19 176.354">
    <path data-name="Path 11261" d="M537.917 306.894c0 1-.025 1.993-.076 2.979a4.754 4.754 0 0 1-4.755 4.494H510a27.893 27.893 0 0 0 0-14.945h8.729a2.888 2.888 0 0 0 2.789-3.626 42.709 42.709 0 1 0-41.25 53.8h22.874a4.8 4.8 0 0 1 4.806 4.8v5.341a4.806 4.806 0 0 1-4.8 4.8h-23.267a57.3 57.3 0 0 1-57.258-57.908.566.566 0 0 1 0-.078 57.649 57.649 0 0 1 114.812-7.126 58.443 58.443 0 0 1 .482 7.468z" transform="translate(-384.673 -249.24)" style="fill:#fafafa"/>
    <path data-name="Path 11262" d="M685.372 446.992a25.841 25.841 0 0 1-46.988 16.634 2.384 2.384 0 0 1 1.9-3.823h18.188l4.27-4.27v-17.082l-4.27-4.267h-18.255a2.353 2.353 0 0 1-1.874-3.768 25.845 25.845 0 0 1 47.031 16.577z" transform="translate(-562.02 -389.337)" style="fill:#fafafa"/>
    <path data-name="Path 11263" d="M671.307 446.761a27.735 27.735 0 0 1-26.238 27.717c-.5.026-1.013.041-1.521.041a27.722 27.722 0 0 1-22.207-11.094 2.395 2.395 0 0 1 1.9-3.848h15.149a7.29 7.29 0 0 0 7.3-7.3V441.24a7.292 7.292 0 0 0-7.292-7.288h-15.24a2.346 2.346 0 0 1-1.9-3.73A27.722 27.722 0 0 1 643.549 419c.509 0 1.016.012 1.518.04a27.733 27.733 0 0 1 26.233 27.714z" transform="translate(-547.954 -389.107)" style="fill:#fafafa"/>
    <path data-name="Path 11264" d="M977.265 817.61h7.7a5.445 5.445 0 0 1 5.445 5.445v7.745a2.018 2.018 0 0 1-2.02 2.02h-14.552a2.018 2.018 0 0 1-2.018-2.018v-7.748a5.445 5.445 0 0 1 5.445-5.444z" transform="translate(-837.164 -717.525)" style="fill:#fafafa"/>
    <rect data-name="Rectangle 954" width="12.314" height="12.314" rx="6.157" transform="translate(137.792 83.776)" style="fill:#fafafa"/>
    <path data-name="Path 11265" d="M991.248 725.19h5.387a3.858 3.858 0 0 1 3.858 3.858h-13.1a3.858 3.858 0 0 1 3.855-3.858z" transform="translate(-849.993 -641.379)" style="fill:#fafafa"/>
    <path data-name="Path 11266" d="M1008.979 715.9h.176a3.228 3.228 0 0 1 3.228 3.228v.63h-6.633v-.63a3.228 3.228 0 0 1 3.23-3.228z" transform="translate(-865.12 -633.725)" style="fill:#fafafa"/>
    <path data-name="Path 11267" d="M207.13 1087.84v-34.07h15.936c7.406 0 11.446 5.006 11.446 10.983 0 5.924-4.087 10.93-11.446 10.93h-8.683v12.15zm19.972-23.087c0-2.862-2.2-4.6-5.057-4.6h-7.662v9.151h7.662c2.855.003 5.055-1.742 5.055-4.551z" transform="translate(-207.13 -912.099)" style="fill:#fafafa"/>
    <path data-name="Path 11268" d="M387.56 1128.945v-24.672h6.487v3.321a10.819 10.819 0 0 1 7.866-3.934v6.34a8.285 8.285 0 0 0-1.789-.153c-2.145 0-5 1.233-6.077 2.817v16.3z" transform="translate(-355.788 -953.203)" style="fill:#fafafa"/>
    <path data-name="Path 11269" d="M483 1116.583c0-7 4.9-12.923 13.031-12.923 8.172 0 13.077 5.926 13.077 12.923s-4.9 12.974-13.077 12.974c-8.131.001-13.031-5.976-13.031-12.974zm19.358 0c0-3.83-2.247-7.151-6.339-7.151-4.036 0-6.283 3.321-6.283 7.151 0 3.874 2.247 7.2 6.283 7.2 4.091.009 6.338-3.319 6.338-7.2z" transform="translate(-434.422 -953.203)" style="fill:#fafafa"/>
    <path data-name="Path 11270" d="m648.639 1131.812-9.909-24.672h6.947l6.436 17.164 6.487-17.164h6.947l-9.91 24.672z" transform="translate(-562.729 -956.071)" style="fill:#fafafa"/>
    <path data-name="Path 11271" d="M804.088 1051.948a3.858 3.858 0 1 1 3.858 3.858 3.857 3.857 0 0 1-3.858-3.858zm.615 31.211v-24.671h6.485v24.672z" transform="translate(-698.968 -907.419)" style="fill:#fafafa"/>
    <path data-name="Path 11272" d="M890.513 1087.824v-3.17a9.5 9.5 0 0 1-7.611 3.779c-6.181 0-10.932-4.7-10.932-12.974 0-8.019 4.649-12.923 10.932-12.923a9.361 9.361 0 0 1 7.611 3.781v-12.567h6.538v34.07zm0-7.968v-8.736a7.04 7.04 0 0 0-5.568-2.818c-3.728 0-6.283 2.911-6.283 7.151 0 4.291 2.555 7.2 6.283 7.2a6.975 6.975 0 0 0 5.568-2.798z" transform="translate(-754.897 -912.082)" style="fill:#fafafa"/>
    <path data-name="Path 11273" d="M1042 1116.583a12.587 12.587 0 0 1 12.77-12.923c7.406 0 12.36 5.517 12.36 13.536v1.532h-18.343c.46 3.015 2.911 5.517 7.1 5.517a10.32 10.32 0 0 0 6.538-2.4l2.911 4.291c-2.451 2.247-6.339 3.422-10.164 3.422-7.509 0-13.172-5.058-13.172-12.975zm12.77-7.611a5.7 5.7 0 0 0-6.028 5.262h12.15c-.2-2.351-1.838-5.262-6.13-5.262z" transform="translate(-894.986 -953.203)" style="fill:#fafafa"/>
    <path data-name="Path 11274" d="M1211.36 1128.945v-24.672h6.487v3.321a10.822 10.822 0 0 1 7.866-3.934v6.34a8.269 8.269 0 0 0-1.787-.153c-2.145 0-5.006 1.233-6.079 2.817v16.3z" transform="translate(-1034.523 -953.203)" style="fill:#fafafa"/>
    <path data-name="Path 11275" d="M653.215 559.36a3.045 3.045 0 1 0 3.045 3.045 3.045 3.045 0 0 0-3.045-3.045zm0 4.566a1.523 1.523 0 1 1 1.521-1.521 1.523 1.523 0 0 1-1.521 1.521z" transform="translate(-572.154 -504.75)" style="fill:#fafafa"/>
    <path data-name="Path 11276" d="m635.54 536.12-.338-.2a6.955 6.955 0 0 0 0-2.5l.338-.194a2.289 2.289 0 0 0-2.289-3.957l-.338.2a6.825 6.825 0 0 0-2.168-1.25v-.391a2.289 2.289 0 0 0-4.566 0v.4a6.811 6.811 0 0 0-2.168 1.252l-.335-.2a2.289 2.289 0 0 0-2.289 3.958l.338.194a6.961 6.961 0 0 0 0 2.5l-.338.2a2.289 2.289 0 1 0 2.289 3.957l.338-.2a6.849 6.849 0 0 0 2.169 1.25v.389a2.289 2.289 0 1 0 4.566 0v-.389a6.868 6.868 0 0 0 2.166-1.254l.342.2a2.289 2.289 0 0 0 2.289-3.959zm-1.937-2.874a5.377 5.377 0 0 1 0 2.854.757.757 0 0 0 .352.861l.826.477a.763.763 0 0 1-.763 1.319l-.826-.479a.762.762 0 0 0-.924.127 5.317 5.317 0 0 1-2.465 1.426.761.761 0 0 0-.571.738v.953a.762.762 0 1 1-1.523 0v-.953a.761.761 0 0 0-.571-.738 5.3 5.3 0 0 1-2.465-1.43.762.762 0 0 0-.924-.125l-.826.477a.761.761 0 0 1-.769-1.314l.826-.477a.761.761 0 0 0 .352-.863 5.374 5.374 0 0 1 0-2.853.759.759 0 0 0-.352-.859l-.824-.477a.761.761 0 0 1 .761-1.319l.826.479a.763.763 0 0 0 .924-.123 5.3 5.3 0 0 1 2.465-1.426.761.761 0 0 0 .572-.741v-.953a.761.761 0 1 1 1.521 0v.953a.761.761 0 0 0 .572.738 5.318 5.318 0 0 1 2.465 1.43.761.761 0 0 0 .925.125l.826-.477a.761.761 0 1 1 .77 1.314h-.009l-.824.477a.757.757 0 0 0-.352.858z" transform="translate(-547.406 -477.02)" style="fill:#fafafa"/>
</svg>
