<svg xmlns="http://www.w3.org/2000/svg" xmlns:xlink="http://www.w3.org/1999/xlink" width="108" height="99.62" viewBox="0 0 108 99.62">
  <defs>
    <linearGradient id="linear-gradient" x1="0.5" x2="0.5" y2="1" gradientUnits="objectBoundingBox">
      <stop offset="0" stop-color="#259ffc"/>
      <stop offset="1" stop-color="#2567fc"/>
    </linearGradient>
  </defs>
  <g id="Group_1908" data-name="Group 1908" transform="translate(-134 -79.19)">
    <g id="Logo_Provider1" data-name="Logo Provider1" transform="translate(113.396 54.398)">
      <path id="Path_11277" data-name="Path 11277" d="M107.168,57.36c0,.564-.014,1.126-.043,1.683a2.686,2.686,0,0,1-2.686,2.539H91.4a15.756,15.756,0,0,0,0-8.442h4.931A1.631,1.631,0,0,0,97.9,51.091a24.126,24.126,0,1,0-23.3,30.39H87.525a2.714,2.714,0,0,1,2.715,2.712v3.017a2.715,2.715,0,0,1-2.713,2.712H74.385A32.367,32.367,0,0,1,42.041,57.211a.323.323,0,0,1,0-.044A32.565,32.565,0,0,1,106.9,53.142a33.006,33.006,0,0,1,.273,4.219Z" fill="url(#linear-gradient)"/>
      <path id="Path_11278" data-name="Path 11278" d="M90.283,57.36A15.667,15.667,0,0,1,75.462,73.017,15.646,15.646,0,0,1,63.74,66.756a1.347,1.347,0,0,1,1.074-2.16H75.089L77.5,62.185V52.536l-2.412-2.41H64.776A1.329,1.329,0,0,1,63.717,48a15.655,15.655,0,0,1,11.746-6.291A15.666,15.666,0,0,1,90.284,57.361Z" fill="url(#linear-gradient)"/>
      <path id="Path_11279" data-name="Path 11279" d="M90.283,57.36A15.667,15.667,0,0,1,75.462,73.017c-.283.015-.572.023-.859.023a15.66,15.66,0,0,1-12.544-6.267A1.353,1.353,0,0,1,63.129,64.6h8.56a4.118,4.118,0,0,0,4.122-4.121V54.242a4.119,4.119,0,0,0-4.119-4.117H63.085a1.325,1.325,0,0,1-1.073-2.107A15.66,15.66,0,0,1,74.6,41.678c.287,0,.574.007.857.023A15.666,15.666,0,0,1,90.282,57.356Z" fill="url(#linear-gradient)"/>
      <path id="Path_11280" data-name="Path 11280" d="M99.744,81.329h4.35a3.076,3.076,0,0,1,3.076,3.076v4.377a1.14,1.14,0,0,1-1.141,1.141h-8.22a1.14,1.14,0,0,1-1.14-1.14V84.405A3.076,3.076,0,0,1,99.744,81.329Z" fill="url(#linear-gradient)"/>
      <rect id="Rectangle_956" data-name="Rectangle 956" width="6.956" height="6.956" transform="translate(98.44 72.116)" fill="url(#linear-gradient)"/>
      <path id="Path_11281" data-name="Path 11281" d="M100.4,72.136h3.043a2.179,2.179,0,0,1,2.179,2.179h-7.4a2.179,2.179,0,0,1,2.179-2.179Z" fill="url(#linear-gradient)"/>
      <path id="Path_11282" data-name="Path 11282" d="M101.868,71.212h.1a1.823,1.823,0,0,1,1.823,1.823v.356h-3.747v-.356a1.823,1.823,0,0,1,1.824-1.823Z" fill="url(#linear-gradient)"/>
      <path id="Path_11283" data-name="Path 11283" d="M20.6,124.066V104.82h9c4.184,0,6.466,2.828,6.466,6.2,0,3.346-2.309,6.174-6.466,6.174H24.7v6.864Zm11.282-13.042a2.6,2.6,0,0,0-2.857-2.6H24.7v5.17h4.328A2.6,2.6,0,0,0,31.886,111.024Z" fill="url(#linear-gradient)"/>
      <path id="Path_11284" data-name="Path 11284" d="M38.551,124.066V110.129h3.665V112a6.111,6.111,0,0,1,4.443-2.222v3.581a4.725,4.725,0,0,0-4.443,1.5v9.205Z" fill="url(#linear-gradient)"/>
      <path id="Path_11285" data-name="Path 11285" d="M48.045,117.083a7.06,7.06,0,0,1,7.361-7.3,7.315,7.315,0,1,1,0,14.629A7.082,7.082,0,0,1,48.045,117.083Zm10.935,0c0-2.163-1.269-4.04-3.581-4.04-2.28,0-3.549,1.876-3.549,4.04,0,2.188,1.269,4.068,3.549,4.068,2.311,0,3.58-1.875,3.58-4.068Z" fill="url(#linear-gradient)"/>
      <path id="Path_11286" data-name="Path 11286" d="M69.133,124.066l-5.6-13.937h3.924l3.636,9.7,3.665-9.7h3.924l-5.6,13.937Z" fill="url(#linear-gradient)"/>
      <path id="Path_11287" data-name="Path 11287" d="M79.984,106.434a2.179,2.179,0,1,1,2.179,2.179,2.179,2.179,0,0,1-2.179-2.179Zm.347,17.63V110.129h3.664v13.937Z" fill="url(#linear-gradient)"/>
      <path id="Path_11288" data-name="Path 11288" d="M97.21,124.066v-1.79a5.367,5.367,0,0,1-4.3,2.135c-3.491,0-6.175-2.655-6.175-7.329,0-4.53,2.626-7.3,6.175-7.3a5.288,5.288,0,0,1,4.3,2.136v-7.1H100.9v19.246Zm0-4.5V114.63a3.977,3.977,0,0,0-3.145-1.592c-2.106,0-3.549,1.644-3.549,4.04,0,2.424,1.443,4.068,3.549,4.068A3.94,3.94,0,0,0,97.21,119.565Z" fill="url(#linear-gradient)"/>
      <path id="Path_11289" data-name="Path 11289" d="M103.649,117.083a7.11,7.11,0,0,1,7.214-7.3c4.184,0,6.982,3.116,6.982,7.646v.865H107.483a3.735,3.735,0,0,0,4.011,3.116,5.83,5.83,0,0,0,3.693-1.356l1.644,2.424a8.693,8.693,0,0,1-5.741,1.933A7.056,7.056,0,0,1,103.649,117.083Zm7.214-4.3a3.217,3.217,0,0,0-3.4,2.972h6.864a3.193,3.193,0,0,0-3.463-2.972Z" fill="url(#linear-gradient)"/>
      <path id="Path_11290" data-name="Path 11290" d="M120.5,124.066V110.129h3.665V112a6.113,6.113,0,0,1,4.443-2.222v3.581a4.725,4.725,0,0,0-4.443,1.5v9.205Z" fill="url(#linear-gradient)"/>
      <path id="Path_11291" data-name="Path 11291" d="M66.393,55.64a1.72,1.72,0,1,0,1.72,1.72,1.72,1.72,0,0,0-1.72-1.72Zm0,2.579a.86.86,0,1,1,.859-.859.86.86,0,0,1-.859.859Z" fill="url(#linear-gradient)"/>
      <path id="Path_11292" data-name="Path 11292" d="M70.389,58.177l-.191-.11a3.93,3.93,0,0,0,0-1.414l.191-.109A1.293,1.293,0,0,0,69.1,54.307l-.191.11a3.855,3.855,0,0,0-1.224-.706v-.221a1.293,1.293,0,0,0-2.579,0v.224a3.848,3.848,0,0,0-1.224.707l-.189-.11a1.293,1.293,0,0,0-1.293,2.236h0l.191.109a3.93,3.93,0,0,0,0,1.414l-.191.11a1.293,1.293,0,1,0,1.293,2.235h0l.191-.11a3.868,3.868,0,0,0,1.225.706v.22a1.293,1.293,0,1,0,2.579,0v-.22a3.88,3.88,0,0,0,1.224-.708l.193.111a1.293,1.293,0,0,0,1.293-2.236h0Zm-1.094-1.623a3.038,3.038,0,0,1,0,1.612.428.428,0,0,0,.2.486l.467.27a.431.431,0,0,1-.431.745h0l-.467-.271a.431.431,0,0,0-.522.072,3,3,0,0,1-1.393.806.43.43,0,0,0-.322.417v.538a.431.431,0,1,1-.86,0V60.69a.43.43,0,0,0-.322-.417,3,3,0,0,1-1.393-.808.431.431,0,0,0-.522-.071l-.467.27a.43.43,0,1,1-.435-.742h0l.467-.27a.43.43,0,0,0,.2-.487,3.035,3.035,0,0,1,0-1.611.429.429,0,0,0-.2-.485l-.466-.27a.43.43,0,1,1,.43-.745l.467.271a.431.431,0,0,0,.522-.07,2.992,2.992,0,0,1,1.393-.806.43.43,0,0,0,.323-.419v-.538a.43.43,0,0,1,.859,0v.538a.43.43,0,0,0,.323.417,3,3,0,0,1,1.393.808.43.43,0,0,0,.522.071l.467-.27a.43.43,0,0,1,.435.742h0l-.466.27a.428.428,0,0,0-.2.484Z" fill="url(#linear-gradient)"/>
    </g>
  </g>
</svg>
