<svg width="24" height="24" viewBox="0 0 24 24" fill="none" xmlns="http://www.w3.org/2000/svg">
<g clip-path="url(#clip0_6310_6971)">
<path d="M21.9731 12.0024V19.5845C21.9968 19.9035 21.9516 20.224 21.8406 20.524C21.7295 20.8241 21.5552 21.0968 21.3294 21.3235C21.1036 21.5502 20.8317 21.7257 20.5321 21.838C20.2325 21.9503 19.9123 21.9968 19.5931 21.9744H4.40209C4.08527 21.996 3.76748 21.9497 3.47002 21.8385C3.17257 21.7273 2.9023 21.5538 2.67733 21.3297C2.45236 21.1056 2.2779 20.836 2.16558 20.539C2.05326 20.242 2.00569 19.9243 2.02609 19.6074V4.39042C2.00595 4.07566 2.05297 3.76022 2.16402 3.46501C2.27508 3.1698 2.44765 2.9016 2.67025 2.67814C2.89285 2.45469 3.16041 2.28111 3.45519 2.16893C3.74998 2.05675 4.06525 2.00852 4.38009 2.02745H19.6221C19.9347 2.00909 20.2477 2.05698 20.5406 2.16801C20.8334 2.27904 21.0994 2.45065 21.3213 2.67167C21.5432 2.8927 21.7158 3.15814 21.828 3.45054C21.9401 3.74295 21.9893 4.05575 21.9721 4.36845C21.9741 6.91312 21.9744 9.45776 21.9731 12.0024ZM6.4681 7.56993C6.4681 8.1722 6.95634 8.66044 7.55862 8.66044H16.4316C17.0338 8.66044 17.5221 8.1722 17.5221 7.56993V7.56993C17.5221 6.96765 17.0338 6.47941 16.4316 6.47941H7.55862C6.95634 6.47941 6.4681 6.96765 6.4681 7.56993V7.56993ZM6.46909 11.9979C6.46855 12.5989 6.95559 13.0864 7.55659 13.0864H16.4346C17.0352 13.0864 17.5221 12.5995 17.5221 11.9989V11.9989C17.5221 11.3983 17.0352 10.9114 16.4346 10.9114H7.55659C6.95637 10.9114 6.46964 11.3977 6.46909 11.9979V11.9979ZM6.4681 16.4374C6.4681 17.04 6.95656 17.5284 7.55911 17.5284H13.1121C13.7146 17.5284 14.2031 17.04 14.2031 16.4374V16.4374C14.2031 15.8349 13.7146 15.3464 13.1121 15.3464H7.55911C6.95656 15.3464 6.4681 15.8349 6.4681 16.4374V16.4374Z" fill="#0079FF"/>
</g>
<defs>
<clipPath id="clip0_6310_6971">
<rect width="24" height="24" fill="white"/>
</clipPath>
</defs>
</svg>
