<svg width="200" height="200" viewBox="0 0 200 200" fill="none" xmlns="http://www.w3.org/2000/svg">
<g clip-path="url(#clip0_5664_6689)">
<path opacity="0.06" d="M98.2687 178.25C145.159 178.25 183.115 140.246 183.115 93.4029C183.115 46.5599 145.112 8.50879 98.2687 8.50879C51.4257 8.50879 13.4219 46.5126 13.4219 93.4029C13.4219 140.293 51.3784 178.25 98.2687 178.25Z" fill="#0079FF"/>
<path opacity="0.1" d="M58.999 121.8L118.328 48L154.987 58.6118L141.964 159.424L58.999 121.8Z" fill="url(#paint0_linear_5664_6689)"/>
<path d="M165.414 45.5549C167.094 39.2852 166.214 32.6048 162.969 26.9835C159.723 21.3622 154.378 17.2604 148.108 15.5804C141.838 13.9005 135.158 14.7799 129.537 18.0254C123.915 21.2709 119.813 26.6165 118.133 32.8862L141.774 39.2206L165.414 45.5549Z" fill="#0079FF"/>
<path d="M165.414 45.5549C167.094 39.2852 166.214 32.6048 162.969 26.9835C159.723 21.3622 154.378 17.2604 148.108 15.5804C141.838 13.9005 135.158 14.7799 129.537 18.0254C123.915 21.2709 119.813 26.6165 118.133 32.8862L141.774 39.2206L165.414 45.5549Z" fill="url(#paint1_linear_5664_6689)" fill-opacity="0.6"/>
<ellipse cx="139.275" cy="48.5469" rx="60.1976" ry="10.2039" transform="rotate(15 139.275 48.5469)" fill="#0079FF"/>
<ellipse cx="139.275" cy="48.5469" rx="60.1976" ry="10.2039" transform="rotate(15 139.275 48.5469)" fill="url(#paint2_linear_5664_6689)" fill-opacity="0.6"/>
<ellipse cx="137.925" cy="53.5824" rx="45.599" ry="5.13921" transform="rotate(15 137.925 53.5824)" fill="#0079FF"/>
<ellipse cx="137.271" cy="56.0288" rx="24.474" ry="2.45788" transform="rotate(15 137.271 56.0288)" fill="#0079FF"/>
<ellipse cx="137.271" cy="56.0288" rx="24.474" ry="2.45788" transform="rotate(15 137.271 56.0288)" fill="white" fill-opacity="0.3"/>
<g filter="url(#filter0_d_5664_6689)">
<path d="M13 136.665C13 138.458 13.6505 140.153 14.8215 141.49C15.9925 142.826 17.6189 143.707 19.3753 143.935C19.7006 143.967 20.0259 144 20.3512 144H44.7141C45.2345 144 45.7875 143.967 46.3079 143.87C48.5523 143.478 50.6015 142.305 52.0002 140.512C53.4314 138.719 54.1145 136.469 53.9844 134.187C53.8217 131.905 52.8459 129.754 51.2195 128.157C49.5932 126.559 47.4138 125.646 45.1369 125.549C43.966 122.973 41.9818 120.887 39.5097 119.55C37.0376 118.214 34.1752 117.725 31.4104 118.148C28.6456 118.572 26.076 119.876 24.0918 121.897C22.1402 123.919 20.8716 126.527 20.4813 129.298H20.3512C19.3753 129.298 18.4321 129.493 17.5538 129.852C16.6756 130.21 15.8624 130.764 15.1793 131.449C14.4963 132.134 13.9433 132.949 13.5855 133.829C13.1952 134.742 13 135.72 13 136.665Z" fill="#0079FF"/>
<path d="M13 136.665C13 138.458 13.6505 140.153 14.8215 141.49C15.9925 142.826 17.6189 143.707 19.3753 143.935C19.7006 143.967 20.0259 144 20.3512 144H44.7141C45.2345 144 45.7875 143.967 46.3079 143.87C48.5523 143.478 50.6015 142.305 52.0002 140.512C53.4314 138.719 54.1145 136.469 53.9844 134.187C53.8217 131.905 52.8459 129.754 51.2195 128.157C49.5932 126.559 47.4138 125.646 45.1369 125.549C43.966 122.973 41.9818 120.887 39.5097 119.55C37.0376 118.214 34.1752 117.725 31.4104 118.148C28.6456 118.572 26.076 119.876 24.0918 121.897C22.1402 123.919 20.8716 126.527 20.4813 129.298H20.3512C19.3753 129.298 18.4321 129.493 17.5538 129.852C16.6756 130.21 15.8624 130.764 15.1793 131.449C14.4963 132.134 13.9433 132.949 13.5855 133.829C13.1952 134.742 13 135.72 13 136.665Z" fill="url(#paint3_linear_5664_6689)" fill-opacity="0.6"/>
</g>
<g opacity="0.5">
<path d="M42 88.6146C42 89.4422 42.3015 90.2246 42.8441 90.8415C43.3868 91.4583 44.1405 91.8646 44.9544 91.9699C45.1052 91.985 45.2559 92 45.4066 92H56.6968C56.9379 92 57.1942 91.985 57.4354 91.9398C58.4755 91.7593 59.4251 91.2176 60.0733 90.3901C60.7365 89.5625 61.053 88.5244 60.9928 87.4711C60.9174 86.4179 60.4652 85.4249 59.7115 84.6876C58.9578 83.9504 57.9479 83.5291 56.8927 83.4839C56.3501 82.2953 55.4306 81.3324 54.285 80.7155C53.1394 80.0986 51.8129 79.8729 50.5317 80.0685C49.2504 80.2641 48.0596 80.8659 47.1401 81.7988C46.2357 82.7316 45.6478 83.9353 45.4669 85.2142H45.4066C44.9544 85.2142 44.5173 85.3045 44.1103 85.47C43.7033 85.6355 43.3265 85.8913 43.0099 86.2073C42.6934 86.5232 42.4371 86.8994 42.2713 87.3056C42.0904 87.7269 42 88.1783 42 88.6146Z" fill="#0079FF"/>
<path d="M42 88.6146C42 89.4422 42.3015 90.2246 42.8441 90.8415C43.3868 91.4583 44.1405 91.8646 44.9544 91.9699C45.1052 91.985 45.2559 92 45.4066 92H56.6968C56.9379 92 57.1942 91.985 57.4354 91.9398C58.4755 91.7593 59.4251 91.2176 60.0733 90.3901C60.7365 89.5625 61.053 88.5244 60.9928 87.4711C60.9174 86.4179 60.4652 85.4249 59.7115 84.6876C58.9578 83.9504 57.9479 83.5291 56.8927 83.4839C56.3501 82.2953 55.4306 81.3324 54.285 80.7155C53.1394 80.0986 51.8129 79.8729 50.5317 80.0685C49.2504 80.2641 48.0596 80.8659 47.1401 81.7988C46.2357 82.7316 45.6478 83.9353 45.4669 85.2142H45.4066C44.9544 85.2142 44.5173 85.3045 44.1103 85.47C43.7033 85.6355 43.3265 85.8913 43.0099 86.2073C42.6934 86.5232 42.4371 86.8994 42.2713 87.3056C42.0904 87.7269 42 88.1783 42 88.6146Z" fill="url(#paint4_linear_5664_6689)" fill-opacity="0.6"/>
</g>
<g opacity="0.4">
<path d="M171 96.0504C171 97.0159 171.365 97.9287 172.022 98.6484C172.679 99.3681 173.591 99.842 174.576 99.9649C174.759 99.9824 174.941 100 175.124 100H188.791C189.083 100 189.393 99.9824 189.685 99.9298C190.944 99.7191 192.094 99.0872 192.878 98.1218C193.681 97.1563 194.064 95.9451 193.991 94.7163C193.9 93.4876 193.353 92.329 192.44 91.4689C191.528 90.6088 190.305 90.1173 189.028 90.0646C188.371 88.6779 187.258 87.5544 185.871 86.8347C184.485 86.115 182.879 85.8517 181.328 86.0799C179.777 86.3081 178.335 87.0103 177.222 88.0986C176.127 89.1869 175.416 90.5912 175.197 92.0833H175.124C174.576 92.0833 174.047 92.1886 173.555 92.3817C173.062 92.5748 172.606 92.8732 172.223 93.2418C171.839 93.6104 171.529 94.0493 171.328 94.5232C171.109 95.0147 171 95.5414 171 96.0504Z" fill="#0079FF"/>
<path d="M171 96.0504C171 97.0159 171.365 97.9287 172.022 98.6484C172.679 99.3681 173.591 99.842 174.576 99.9649C174.759 99.9824 174.941 100 175.124 100H188.791C189.083 100 189.393 99.9824 189.685 99.9298C190.944 99.7191 192.094 99.0872 192.878 98.1218C193.681 97.1563 194.064 95.9451 193.991 94.7163C193.9 93.4876 193.353 92.329 192.44 91.4689C191.528 90.6088 190.305 90.1173 189.028 90.0646C188.371 88.6779 187.258 87.5544 185.871 86.8347C184.485 86.115 182.879 85.8517 181.328 86.0799C179.777 86.3081 178.335 87.0103 177.222 88.0986C176.127 89.1869 175.416 90.5912 175.197 92.0833H175.124C174.576 92.0833 174.047 92.1886 173.555 92.3817C173.062 92.5748 172.606 92.8732 172.223 93.2418C171.839 93.6104 171.529 94.0493 171.328 94.5232C171.109 95.0147 171 95.5414 171 96.0504Z" fill="url(#paint5_linear_5664_6689)" fill-opacity="0.6"/>
</g>
<g opacity="0.4">
<path d="M165.436 74.4007C165.2 73.5026 166.051 72.6518 166.949 72.9354L173.094 74.6371C173.992 74.8734 174.276 76.0551 173.614 76.6696L169.076 81.1128C168.414 81.7746 167.28 81.4437 167.044 80.5456L165.436 74.4007Z" fill="#0079FF"/>
<path d="M165.436 74.4007C165.2 73.5026 166.051 72.6518 166.949 72.9354L173.094 74.6371C173.992 74.8734 174.276 76.0551 173.614 76.6696L169.076 81.1128C168.414 81.7746 167.28 81.4437 167.044 80.5456L165.436 74.4007Z" fill="url(#paint6_linear_5664_6689)" fill-opacity="0.6"/>
</g>
<g opacity="0.4">
<path d="M23.04 63.5208C22.8036 62.6227 23.6545 61.7719 24.5526 62.0555L30.6975 63.7572C31.5956 63.9935 31.8792 65.1752 31.2174 65.7897L26.6797 70.233C26.0179 70.8947 24.8835 70.5638 24.6471 69.6657L23.04 63.5208Z" fill="#0079FF"/>
<path d="M23.04 63.5208C22.8036 62.6227 23.6545 61.7719 24.5526 62.0555L30.6975 63.7572C31.5956 63.9935 31.8792 65.1752 31.2174 65.7897L26.6797 70.233C26.0179 70.8947 24.8835 70.5638 24.6471 69.6657L23.04 63.5208Z" fill="url(#paint7_linear_5664_6689)" fill-opacity="0.6"/>
</g>
<g opacity="0.6">
<path d="M85.5083 1.13444C85.8865 -0.378147 88.0135 -0.378147 88.3444 1.13444L89.5734 6.19216C89.7152 6.71211 90.1406 7.13753 90.6606 7.27933L95.7183 8.50831C97.2309 8.88646 97.2309 11.0135 95.7183 11.3444L90.6606 12.5734C90.1406 12.7152 89.7152 13.1406 89.5734 13.6606L88.3444 18.7183C87.9663 20.2309 85.8392 20.2309 85.5083 18.7183L84.2793 13.6606C84.1375 13.1406 83.7121 12.7152 83.1922 12.5734L78.1344 11.3444C76.6219 10.9663 76.6219 8.83919 78.1344 8.50831L83.1922 7.27933C83.7121 7.13753 84.1375 6.71211 84.2793 6.19216L85.5083 1.13444Z" fill="#0079FF"/>
<path d="M85.5083 1.13444C85.8865 -0.378147 88.0135 -0.378147 88.3444 1.13444L89.5734 6.19216C89.7152 6.71211 90.1406 7.13753 90.6606 7.27933L95.7183 8.50831C97.2309 8.88646 97.2309 11.0135 95.7183 11.3444L90.6606 12.5734C90.1406 12.7152 89.7152 13.1406 89.5734 13.6606L88.3444 18.7183C87.9663 20.2309 85.8392 20.2309 85.5083 18.7183L84.2793 13.6606C84.1375 13.1406 83.7121 12.7152 83.1922 12.5734L78.1344 11.3444C76.6219 10.9663 76.6219 8.83919 78.1344 8.50831L83.1922 7.27933C83.7121 7.13753 84.1375 6.71211 84.2793 6.19216L85.5083 1.13444Z" fill="url(#paint8_linear_5664_6689)" fill-opacity="0.6"/>
</g>
<path opacity="0.4" d="M136.711 148.356C136.711 150.2 135.199 151.712 133.355 151.712C131.512 151.712 129.999 150.2 129.999 148.356C129.999 146.513 131.512 145 133.355 145C135.199 145 136.711 146.513 136.711 148.356Z" stroke="#0079FF" stroke-width="1.92243"/>
<g opacity="0.6">
<path d="M171.507 117.134C171.885 115.622 174.013 115.622 174.343 117.134L175.572 122.192C175.714 122.712 176.14 123.138 176.66 123.279L181.717 124.508C183.23 124.886 183.23 127.014 181.717 127.344L176.66 128.573C176.14 128.715 175.714 129.141 175.572 129.661L174.343 134.718C173.965 136.231 171.838 136.231 171.507 134.718L170.278 129.661C170.137 129.141 169.711 128.715 169.191 128.573L164.133 127.344C162.621 126.966 162.621 124.839 164.133 124.508L169.191 123.279C169.711 123.138 170.137 122.712 170.278 122.192L171.507 117.134Z" fill="#0079FF"/>
<path d="M171.507 117.134C171.885 115.622 174.013 115.622 174.343 117.134L175.572 122.192C175.714 122.712 176.14 123.138 176.66 123.279L181.717 124.508C183.23 124.886 183.23 127.014 181.717 127.344L176.66 128.573C176.14 128.715 175.714 129.141 175.572 129.661L174.343 134.718C173.965 136.231 171.838 136.231 171.507 134.718L170.278 129.661C170.137 129.141 169.711 128.715 169.191 128.573L164.133 127.344C162.621 126.966 162.621 124.839 164.133 124.508L169.191 123.279C169.711 123.138 170.137 122.712 170.278 122.192L171.507 117.134Z" fill="url(#paint9_linear_5664_6689)" fill-opacity="0.6"/>
</g>
<path opacity="0.4" d="M73.3551 64.7121C75.2086 64.7121 76.7111 63.2096 76.7111 61.3561C76.7111 59.5026 75.2086 58 73.3551 58C71.5016 58 69.999 59.5026 69.999 61.3561C69.999 63.2096 71.5016 64.7121 73.3551 64.7121Z" stroke="#0079FF" stroke-width="1.92243"/>
<path d="M104.966 94.82V177.101H111.817V94.82C111.817 92.1587 110.284 90 108.391 90C106.499 90 104.966 92.1587 104.966 94.82Z" fill="#323232"/>
<path d="M104.966 94.82V177.101H111.817V94.82C111.817 92.1587 110.284 90 108.391 90C106.499 90 104.966 92.1587 104.966 94.82Z" fill="url(#paint10_linear_5664_6689)" fill-opacity="0.2"/>
<g filter="url(#filter1_d_5664_6689)">
<path d="M81.3279 101.156C100.541 98.4966 111.313 97.0054 130.527 94.3458C133.27 93.966 135.804 95.8835 136.184 98.6267L139.002 118.985C139.382 121.728 137.464 124.262 134.721 124.642L109 126.5L85.5224 131.452C82.7792 131.832 80.2452 129.915 79.8653 127.171L77.047 106.813C76.6671 104.068 78.5847 101.536 81.3279 101.156Z" fill="#0079FF"/>
<path d="M81.3279 101.156C100.541 98.4966 111.313 97.0054 130.527 94.3458C133.27 93.966 135.804 95.8835 136.184 98.6267L139.002 118.985C139.382 121.728 137.464 124.262 134.721 124.642L109 126.5L85.5224 131.452C82.7792 131.832 80.2452 129.915 79.8653 127.171L77.047 106.813C76.6671 104.068 78.5847 101.536 81.3279 101.156Z" fill="url(#paint11_linear_5664_6689)" fill-opacity="0.6"/>
</g>
<path fill-rule="evenodd" clip-rule="evenodd" d="M102.665 108.128C102.849 107.888 103.192 107.841 103.432 108.025L108.737 112.074L112.787 106.769C112.97 106.529 113.313 106.483 113.554 106.666C113.794 106.849 113.84 107.193 113.657 107.433L109.607 112.738L114.912 116.787C115.153 116.971 115.199 117.314 115.015 117.554C114.832 117.794 114.489 117.84 114.249 117.657L108.943 113.608L104.894 118.913C104.711 119.153 104.367 119.199 104.127 119.016C103.887 118.833 103.841 118.489 104.024 118.249L108.074 112.944L102.768 108.895C102.528 108.711 102.482 108.368 102.665 108.128Z" fill="#26282B" fill-opacity="0.6" stroke="white" stroke-width="0.8" stroke-linecap="round" stroke-linejoin="round"/>
</g>
<defs>
<filter id="filter0_d_5664_6689" x="-6.5" y="107.5" width="80" height="65" filterUnits="userSpaceOnUse" color-interpolation-filters="sRGB">
<feFlood flood-opacity="0" result="BackgroundImageFix"/>
<feColorMatrix in="SourceAlpha" type="matrix" values="0 0 0 0 0 0 0 0 0 0 0 0 0 0 0 0 0 0 127 0" result="hardAlpha"/>
<feOffset dy="9"/>
<feGaussianBlur stdDeviation="9.75"/>
<feComposite in2="hardAlpha" operator="out"/>
<feColorMatrix type="matrix" values="0 0 0 0 0 0 0 0 0 0.47451 0 0 0 0 1 0 0 0 0.2 0"/>
<feBlend mode="normal" in2="BackgroundImageFix" result="effect1_dropShadow_5664_6689"/>
<feBlend mode="normal" in="SourceGraphic" in2="effect1_dropShadow_5664_6689" result="shape"/>
</filter>
<filter id="filter1_d_5664_6689" x="56.699" y="80.9979" width="102.651" height="77.8021" filterUnits="userSpaceOnUse" color-interpolation-filters="sRGB">
<feFlood flood-opacity="0" result="BackgroundImageFix"/>
<feColorMatrix in="SourceAlpha" type="matrix" values="0 0 0 0 0 0 0 0 0 0 0 0 0 0 0 0 0 0 127 0" result="hardAlpha"/>
<feOffset dy="7"/>
<feGaussianBlur stdDeviation="10.15"/>
<feComposite in2="hardAlpha" operator="out"/>
<feColorMatrix type="matrix" values="0 0 0 0 0 0 0 0 0 0.47451 0 0 0 0 1 0 0 0 0.2 0"/>
<feBlend mode="normal" in2="BackgroundImageFix" result="effect1_dropShadow_5664_6689"/>
<feBlend mode="normal" in="SourceGraphic" in2="effect1_dropShadow_5664_6689" result="shape"/>
</filter>
<linearGradient id="paint0_linear_5664_6689" x1="137.14" y1="54.7529" x2="99.0343" y2="139.165" gradientUnits="userSpaceOnUse">
<stop stop-color="#0079FF"/>
<stop offset="1" stop-color="white" stop-opacity="0"/>
</linearGradient>
<linearGradient id="paint1_linear_5664_6689" x1="150.766" y1="66.9674" x2="121.107" y2="18.6376" gradientUnits="userSpaceOnUse">
<stop stop-color="white" stop-opacity="0"/>
<stop offset="1" stop-color="white"/>
</linearGradient>
<linearGradient id="paint2_linear_5664_6689" x1="178.303" y1="58.7508" x2="172.347" y2="25.4479" gradientUnits="userSpaceOnUse">
<stop stop-color="white" stop-opacity="0"/>
<stop offset="1" stop-color="white"/>
</linearGradient>
<linearGradient id="paint3_linear_5664_6689" x1="46.7909" y1="144" x2="26.5539" y2="113.755" gradientUnits="userSpaceOnUse">
<stop stop-color="white" stop-opacity="0"/>
<stop offset="1" stop-color="white"/>
</linearGradient>
<linearGradient id="paint4_linear_5664_6689" x1="57.6592" y1="92" x2="48.3335" y2="78.0057" gradientUnits="userSpaceOnUse">
<stop stop-color="white" stop-opacity="0"/>
<stop offset="1" stop-color="white"/>
</linearGradient>
<linearGradient id="paint5_linear_5664_6689" x1="189.956" y1="100" x2="179.236" y2="83.3081" gradientUnits="userSpaceOnUse">
<stop stop-color="white" stop-opacity="0"/>
<stop offset="1" stop-color="white"/>
</linearGradient>
<linearGradient id="paint6_linear_5664_6689" x1="172.468" y1="81.4614" x2="165.253" y2="74.6237" gradientUnits="userSpaceOnUse">
<stop stop-color="white" stop-opacity="0"/>
<stop offset="1" stop-color="white"/>
</linearGradient>
<linearGradient id="paint7_linear_5664_6689" x1="30.0718" y1="70.5816" x2="22.8563" y2="63.7438" gradientUnits="userSpaceOnUse">
<stop stop-color="white" stop-opacity="0"/>
<stop offset="1" stop-color="white"/>
</linearGradient>
<linearGradient id="paint8_linear_5664_6689" x1="93.362" y1="19.8527" x2="76.6693" y2="4.03204" gradientUnits="userSpaceOnUse">
<stop stop-color="white" stop-opacity="0"/>
<stop offset="1" stop-color="white"/>
</linearGradient>
<linearGradient id="paint9_linear_5664_6689" x1="179.361" y1="135.853" x2="162.668" y2="120.032" gradientUnits="userSpaceOnUse">
<stop stop-color="white" stop-opacity="0"/>
<stop offset="1" stop-color="white"/>
</linearGradient>
<linearGradient id="paint10_linear_5664_6689" x1="104.966" y1="128.164" x2="111.817" y2="138.938" gradientUnits="userSpaceOnUse">
<stop stop-color="white" stop-opacity="0"/>
<stop offset="1" stop-color="white"/>
</linearGradient>
<linearGradient id="paint11_linear_5664_6689" x1="128.139" y1="131.5" x2="99.8337" y2="86.7548" gradientUnits="userSpaceOnUse">
<stop stop-color="white" stop-opacity="0"/>
<stop offset="1" stop-color="white"/>
</linearGradient>
<clipPath id="clip0_5664_6689">
<rect width="187.939" height="199" fill="white" transform="translate(6)"/>
</clipPath>
</defs>
</svg>
